<svg xmlns="http://www.w3.org/2000/svg" id="Layer_1" width="529.3" height="529.3"><style id="style3720">.st0{fill:#231f20}.st1{fill:#fff}</style><path class="st0" id="rect3722" fill="#231f20" d="M0 0h529.3v529.3H0z"/><path class="st1" d="M207 129.8h168l49.5 49.5v170.3L375 399.1H207zm61.8 61.9v145.6h93.8V191.7z" id="path3724" fill="#fff"/><path class="st1" id="rect3726" fill="#fff" d="M104.8 191.5h61.8v207.9h-61.8z"/><path id="rect3728" fill="#35b2d3" d="M104.8 168h61.8v13.6h-61.8z"/><path id="rect3730" fill="#fcd638" d="M104.8 148.9h61.8v13.6h-61.8z"/><path id="rect3732" fill="#ed2929" d="M104.8 129.8h61.8v13.6h-61.8z"/><g id="g3756" transform="translate(-151.7 -473.7)"><path class="st0" d="M731.9 708.2c0 .9-.3 1.6-.9 2.2-.6.6-1.3.9-2.2.9-.9 0-1.6-.3-2.2-.9-.6-.6-.9-1.3-.9-2.2V641c0-.9.3-1.6.9-2.2.6-.6 1.3-.9 2.2-.9.9 0 1.6.3 2.2.9.6.6.9 1.3.9 2.2z" id="path3734" fill="#231f20"/><path class="st0" d="M801.5 710.2l-.1-.1-47-60.5v58.6c0 .9-.3 1.6-.9 2.2-.6.6-1.3.9-2.2.9-.9 0-1.6-.3-2.2-.9-.6-.6-.9-1.3-.9-2.2v-67.6c0-1.5.7-2.4 2.1-2.9 1.4-.5 2.5-.1 3.4 1l47 60.5v-58.6c0-.9.3-1.6.9-2.2.6-.6 1.3-.9 2.2-.9.9 0 1.6.3 2.2.9.6.6.9 1.3.9 2.2v67.8c0 .1 0 .2-.1.3 0 .1 0 .2-.1.3 0 .1-.1.2-.1.3 0 .1-.1.2-.1.3 0 .1-.1.2-.2.3 0 .1-.1.2-.2.3-.1.1-.1.2-.2.3l-.2.2c-.2.1-.2.2-.2.1.1 0 0 0-.1.1 0 0-.1.1-.2.1-.1.1-.2.1-.3.2-.1 0-.1.1-.2.1s-.2.1-.4.1c-.1 0-.2.1-.2.1-.2 0-.4.1-.6.1-.2 0-.4 0-.6-.1l-.2-.1c-.2-.1-.3-.1-.4-.2l-.2-.2c-.1-.1-.3-.1-.4-.2l-.2-.2-.2-.2s.3-.1.2-.2z" id="path3736" fill="#231f20"/><path class="st0" d="M843.8 677.5c-8.2-.1-14.4-2.4-18.6-6.8-3.4-3.6-4.9-7.7-4.7-12.4.3-5.8 2.6-10.7 7-14.7s9.6-6 15.8-6c5.4 0 10.2 1.1 14.5 3.4 5.1 2.7 8.3 6.6 9.6 11.6.2.8.1 1.6-.3 2.3-.4.7-1.1 1.2-1.9 1.4-.8.2-1.6.1-2.3-.3-.7-.4-1.2-1-1.4-1.8-.9-3.6-3.3-6.3-7.2-8.1-3.2-1.6-6.9-2.4-11-2.4-4.5 0-8.3 1.4-11.5 4.3-3.2 2.9-4.9 6.4-5.1 10.6-.1 2.9.9 5.6 3.1 7.9 3 3.2 7.7 4.8 14.2 4.9.9 0 1.6.3 2.2.9.6.6.9 1.4.9 2.2 0 .8-.3 1.5-.9 2.1-.8.7-1.5.9-2.4.9zM830.2 708c-5.1-2.7-8.3-6.6-9.6-11.7-.2-.8-.1-1.6.3-2.3.4-.7 1.1-1.2 1.9-1.4.8-.2 1.6-.1 2.3.3.7.4 1.2 1.1 1.4 1.8.9 3.6 3.3 6.3 7.2 8.2 3.2 1.5 6.9 2.3 11 2.3 4.5 0 8.3-1.4 11.5-4.3 3.2-2.9 4.9-6.4 5.1-10.5.1-3-.9-5.6-3.1-7.9-3-3.2-7.7-4.8-14.2-4.9-.9 0-1.6-.3-2.2-.9-.6-.6-.9-1.3-.9-2.2 0-.9.4-1.6 1-2.2.6-.6 1.3-.9 2.2-.9 8.2.1 14.4 2.4 18.6 6.9 3.4 3.5 4.9 7.6 4.7 12.3-.2 5.8-2.6 10.7-7 14.7s-9.6 6-15.8 6c-5.3 0-10.1-1.1-14.4-3.3z" id="path3738" fill="#231f20"/><path class="st0" d="M897.3 643.8H877c-.9 0-1.6-.3-2.2-.9-.6-.6-.9-1.3-.9-2.2 0-.9.3-1.6.9-2.2.6-.6 1.4-.9 2.2-.9h46.6c.9 0 1.6.3 2.2.9.6.6.9 1.3.9 2.2 0 .9-.3 1.6-.9 2.2-.6.6-1.3.9-2.2.9h-20.3v64.4c0 .9-.3 1.6-.9 2.2-.6.6-1.4.9-2.2.9-.8 0-1.5-.3-2.2-.9-.6-.6-.9-1.4-.9-2.2v-64.4z" id="path3740" fill="#231f20"/><path class="st0" d="M961.9 637.8c5.9 0 11 1.9 15.2 5.8 4.2 3.9 6.3 8.5 6.3 14 0 4.9-1.7 9.1-5.1 12.8-3.4 3.7-7.6 5.9-12.7 6.7l14.6 29.8c.4.8.4 1.5.2 2.3-.3.8-.8 1.4-1.5 1.7-.4.2-.9.3-1.3.3-1.3 0-2.2-.6-2.7-1.7L959 677.3h-17.1v30.3c0 .8-.3 1.5-.9 2.2-.6.6-1.3.9-2.2.9-.8 0-1.5-.3-2.2-.9-.6-.6-.9-1.3-.9-2.2v-66.9c0-.9.3-1.6.9-2.2.6-.6 1.3-.9 2.2-.9h23.1zm15.4 19.8c0-3.8-1.5-7-4.5-9.7-3-2.7-6.6-4.1-10.9-4.1h-20.2v27.5h20.5c4.2-.1 7.7-1.4 10.6-4.1 3-2.6 4.5-5.8 4.5-9.6z" id="path3742" fill="#231f20"/><path class="st0" d="M1041.9 637.9c.8 0 1.5.3 2.2.9.6.6.9 1.3.9 2.2v45.2c0 6.9-2.5 12.9-7.4 17.8s-10.9 7.4-17.8 7.4-12.9-2.5-17.8-7.4-7.4-10.9-7.4-17.8V641c0-.9.3-1.6.9-2.2.6-.6 1.3-.9 2.2-.9.8 0 1.5.3 2.1.9.6.6.9 1.3.9 2.2v45.2c0 5.3 1.9 9.8 5.6 13.5 3.7 3.8 8.2 5.6 13.5 5.6 5.3 0 9.8-1.9 13.5-5.6 3.8-3.7 5.6-8.2 5.6-13.5V641c0-.9.3-1.6.9-2.2.6-.6 1.3-.9 2.1-.9z" id="path3744" fill="#231f20"/><path class="st0" d="M1091.9 711.3c-10.2 0-18.8-3.6-26-10.8-7.2-7.2-10.8-15.9-10.8-26 0-10.2 3.6-18.9 10.8-26.1 7.2-7.2 15.9-10.8 26-10.8 8.4 0 15.9 2.5 22.5 7.6.7.5 1.1 1.2 1.2 2.1.1.9-.1 1.6-.6 2.3-.5.7-1.2 1.1-2.1 1.2-.9.1-1.6-.1-2.3-.6-5.5-4.2-11.8-6.3-18.7-6.3-8.4 0-15.7 3-21.7 9s-9 13.2-9 21.7 3 15.7 9 21.7 13.2 9 21.7 9c7.9 0 14.8-2.7 20.7-8 .6-.6 1.4-.9 2.2-.8.9 0 1.6.4 2.2 1 .6.6.9 1.4.8 2.2 0 .9-.4 1.6-1 2.2-7.1 6.2-15.4 9.4-24.9 9.4z" id="path3746" fill="#231f20"/><path class="st0" d="M1145.5 643.8h-20.3c-.9 0-1.6-.3-2.2-.9-.6-.6-.9-1.3-.9-2.2 0-.9.3-1.6.9-2.2.6-.6 1.4-.9 2.2-.9h46.6c.9 0 1.6.3 2.2.9.6.6.9 1.3.9 2.2 0 .9-.3 1.6-.9 2.2-.6.6-1.3.9-2.2.9h-20.3v64.4c0 .9-.3 1.6-.9 2.2-.6.6-1.4.9-2.2.9-.8 0-1.5-.3-2.2-.9-.6-.6-.9-1.4-.9-2.2v-64.4z" id="path3748" fill="#231f20"/><path class="st0" d="M1190.1 708.2c0 .9-.3 1.6-.9 2.2-.6.6-1.3.9-2.2.9-.9 0-1.6-.3-2.2-.9-.6-.6-.9-1.3-.9-2.2V641c0-.9.3-1.6.9-2.2.6-.6 1.3-.9 2.2-.9.9 0 1.6.3 2.2.9.6.6.9 1.3.9 2.2z" id="path3750" fill="#231f20"/><path class="st0" d="M1237.9 711.3c-10.2 0-18.8-3.6-26-10.8-7.2-7.2-10.8-15.9-10.8-26 0-10.2 3.6-18.8 10.8-26 7.2-7.2 15.9-10.8 26-10.8 10.2 0 18.8 3.6 26 10.8 7.2 7.2 10.8 15.9 10.8 26 0 10.2-3.6 18.8-10.8 26-7.2 7.2-15.9 10.8-26 10.8zm0-67.5c-8.5 0-15.7 3-21.7 9s-9 13.2-9 21.7 3 15.7 9 21.7 13.2 9 21.7 9c8.4 0 15.7-3 21.7-9s9-13.2 9-21.7c0-8.4-3-15.7-9-21.7-6.1-6-13.3-9-21.7-9z" id="path3752" fill="#231f20"/><path class="st0" d="M1342.5 710.2l-.1-.1-47-60.5v58.6c0 .9-.3 1.6-.9 2.2-.6.6-1.3.9-2.2.9-.9 0-1.6-.3-2.2-.9-.6-.6-.9-1.3-.9-2.2v-67.6c0-1.5.7-2.4 2.1-2.9 1.4-.5 2.5-.1 3.4 1l47 60.5v-58.6c0-.9.3-1.6.9-2.2.6-.6 1.3-.9 2.2-.9.9 0 1.6.3 2.2.9.6.6.9 1.3.9 2.2v67.8c0 .1 0 .2-.1.3 0 .1 0 .2-.1.3 0 .1-.1.2-.1.3 0 .1-.1.2-.1.3 0 .1-.1.2-.2.3 0 .1-.1.2-.2.3-.1.1-.1.2-.2.3l-.2.2c-.2.1-.2.2-.2.1.1 0 0 0-.1.1 0 0-.1.1-.2.1-.1.1-.2.1-.3.2-.1 0-.1.1-.2.1s-.2.1-.4.1c-.1 0-.2.1-.2.1-.2 0-.4.1-.6.1-.2 0-.4 0-.6-.1l-.2-.1c-.2-.1-.3-.1-.4-.2l-.2-.2c-.1-.1-.3-.1-.4-.2l-.2-.2-.2-.2s.3-.1.2-.2z" id="path3754" fill="#231f20"/></g><g id="g3774" transform="translate(-151.7 -473.7)"><path class="st0" d="M727 837.5c-.9 0-1.6-.3-2.2-.9-.6-.6-.9-1.4-.9-2.2v-67.5c0-.9.3-1.6.9-2.2.6-.6 1.3-.9 2.2-.9h17.1c10.1 0 18.8 3.6 26 10.8 7.2 7.2 10.8 15.8 10.8 26 0 10.1-3.6 18.8-10.8 26-7.2 7.2-15.8 10.8-26 10.8zm3.1-6.3l14-.2c8.4 0 15.7-3 21.7-8.9 6-6 9-13.2 9-21.6 0-8.4-3-15.6-9-21.6-6-6-13.2-8.9-21.6-8.9h-14v61.2z" id="path3758" fill="#231f20"/><path class="st0" d="M801.7 834.4c0 .9-.3 1.6-.9 2.2-.6.6-1.3.9-2.2.9-.9 0-1.6-.3-2.2-.9-.6-.6-.9-1.3-.9-2.2v-67.2c0-.9.3-1.6.9-2.2.6-.6 1.3-.9 2.2-.9.9 0 1.6.3 2.2.9.6.6.9 1.3.9 2.2z" id="path3760" fill="#231f20"/><path class="st0" d="M865.3 764c.8.3 1.4.8 1.7 1.6.3.8.4 1.5.1 2.3l-23.7 67.5c0-.1 0 0-.1.2 0 .1-.1.1-.1.2-.1.1-.2.3-.3.4-.1.1-.1.2-.1.1-.1.1-.2.3-.4.4l-.1.1c-.1.1-.2.1-.3.2-.1 0-.1.1-.2.1-.1.1-.2.1-.4.2h-.1l-.1.1h-.1c-.1 0-.2.1-.3.1h-.2c-.2 0-.3.1-.5.1-.1 0-.3 0-.5-.1h-.2c-.1 0-.3-.1-.4-.1l-.1-.1h-.1c-.1-.1-.3-.1-.4-.2-.1 0-.1-.1-.2-.1-.1-.1-.2-.1-.3-.2l-.1-.1-.4-.4-.1-.1v-.1c-.1-.1-.2-.2-.3-.4 0 0 0-.1-.1-.2l-.1-.2-23.7-67.5c-.3-.8-.3-1.6.1-2.3.4-.8 1-1.3 1.7-1.6.8-.3 1.6-.2 2.4.2.8.3 1.3.9 1.5 1.7l20.8 59.2 20.8-59.2c.3-.8.8-1.4 1.5-1.7.8-.4 1.1-.6 1.1-.6s1.5.3 2.3.5z" id="path3762" fill="#231f20"/><path class="st0" d="M884.6 834.4c0 .9-.3 1.6-.9 2.2-.6.6-1.3.9-2.2.9-.9 0-1.6-.3-2.2-.9-.6-.6-.9-1.3-.9-2.2v-67.2c0-.9.3-1.6.9-2.2.6-.6 1.3-.9 2.2-.9.9 0 1.6.3 2.2.9.6.6.9 1.3.9 2.2z" id="path3764" fill="#231f20"/><path class="st0" d="M921.7 803.7c-8.2-.1-14.4-2.4-18.6-6.8-3.4-3.6-4.9-7.7-4.7-12.4.3-5.8 2.6-10.7 7-14.7s9.6-6 15.8-6c5.4 0 10.2 1.1 14.5 3.4 5.1 2.7 8.3 6.6 9.6 11.6.2.8.1 1.6-.3 2.3-.4.7-1.1 1.2-1.9 1.4-.8.2-1.6.1-2.3-.3-.7-.4-1.2-1-1.4-1.8-.9-3.6-3.3-6.3-7.2-8.1-3.2-1.6-6.9-2.4-11-2.4-4.5 0-8.3 1.4-11.5 4.3-3.2 2.9-4.9 6.4-5.1 10.6-.1 2.9.9 5.6 3.1 7.9 3 3.2 7.7 4.8 14.2 4.9.9 0 1.6.3 2.2.9.6.6.9 1.4.9 2.2 0 .8-.3 1.5-.9 2.1-.8.6-1.6.9-2.4.9zm-13.6 30.4c-5.1-2.7-8.3-6.6-9.6-11.7-.2-.8-.1-1.6.3-2.3.4-.7 1.1-1.2 1.9-1.4.8-.2 1.6-.1 2.3.3.7.4 1.2 1.1 1.4 1.8.9 3.6 3.3 6.3 7.2 8.2 3.2 1.5 6.9 2.3 11 2.3 4.5 0 8.3-1.4 11.5-4.3 3.2-2.9 4.9-6.4 5.1-10.5.1-3-.9-5.6-3.1-7.9-3-3.2-7.7-4.8-14.2-4.9-.9 0-1.6-.3-2.2-.9-.6-.6-.9-1.3-.9-2.2 0-.9.4-1.6 1-2.2.6-.6 1.3-.9 2.2-.9 8.2.1 14.4 2.4 18.6 6.9 3.4 3.5 4.9 7.6 4.7 12.3-.2 5.8-2.6 10.7-7 14.7s-9.6 6-15.8 6c-5.3.1-10.1-1.1-14.4-3.3z" id="path3766" fill="#231f20"/><path class="st0" d="M964.8 834.4c0 .9-.3 1.6-.9 2.2-.6.6-1.3.9-2.2.9-.9 0-1.6-.3-2.2-.9-.6-.6-.9-1.3-.9-2.2v-67.2c0-.9.3-1.6.9-2.2.6-.6 1.3-.9 2.2-.9.9 0 1.6.3 2.2.9.6.6.9 1.3.9 2.2z" id="path3768" fill="#231f20"/><path class="st0" d="M1012.6 837.5c-10.2 0-18.8-3.6-26-10.8-7.2-7.2-10.8-15.9-10.8-26 0-10.2 3.6-18.8 10.8-26 7.2-7.2 15.9-10.8 26-10.8 10.2 0 18.8 3.6 26 10.8 7.2 7.2 10.8 15.9 10.8 26 0 10.2-3.6 18.8-10.8 26-7.2 7.2-15.9 10.8-26 10.8zm0-67.5c-8.5 0-15.7 3-21.7 9s-9 13.2-9 21.7 3 15.7 9 21.7 13.2 9 21.7 9c8.4 0 15.7-3 21.7-9s9-13.2 9-21.7c0-8.4-3-15.7-9-21.7-6.1-6-13.3-9-21.7-9z" id="path3770" fill="#231f20"/><path class="st0" d="M1117.2 836.4l-.1-.1-47-60.5v58.6c0 .9-.3 1.6-.9 2.2-.6.6-1.3.9-2.2.9-.9 0-1.6-.3-2.2-.9-.6-.6-.9-1.3-.9-2.2v-67.6c0-1.5.7-2.4 2.1-2.9 1.4-.5 2.5-.1 3.4 1l47 60.5v-58.6c0-.9.3-1.6.9-2.2.6-.6 1.3-.9 2.2-.9.9 0 1.6.3 2.2.9.6.6.9 1.3.9 2.2v67.8c0 .1 0 .2-.1.3 0 .1 0 .2-.1.3 0 .1-.1.2-.1.3 0 .1-.1.2-.1.3 0 .1-.1.2-.2.3 0 .1-.1.2-.2.3-.1.1-.1.2-.2.3l-.2.2c-.2.1-.2.2-.2.1.1 0 0 0-.1.1 0 0-.1.1-.2.1-.1.1-.2.1-.3.2-.1 0-.1.1-.2.1s-.2.1-.4.1c-.1 0-.2.1-.2.1-.2 0-.4.1-.6.1-.2 0-.4 0-.6-.1l-.2-.1c-.2-.1-.3-.1-.4-.2l-.2-.2c-.1-.1-.3-.1-.4-.2l-.2-.2-.2-.2s.3-.1.2-.2z" id="path3772" fill="#231f20"/></g></svg>