<svg xmlns="http://www.w3.org/2000/svg" id="Layer_1" width="397.6" height="335.4"><style id="style876">.st0{fill:#231f20}</style><path class="st0" d="M127.1 0H336l61.6 61.6v211.8L336 335H127.1zM204 76.9V258h116.7V76.9z" id="path878" fill="#231f20"/><path class="st0" id="rect880" fill="#231f20" d="M0 76.8h76.9v258.6H0z"/><path id="rect882" fill="#35b2d3" d="M0 47.5h76.9v16.9H0z"/><path id="rect884" fill="#fcd638" d="M0 23.8h76.9v16.9H0z"/><path id="rect886" fill="#ed2929" d="M0 0h76.9v16.9H0z"/><g id="g910" transform="translate(-115.9 -623.5)"><path class="st0" d="M641.9 753.8c0 1.1-.4 2-1.1 2.7-.7.8-1.6 1.1-2.7 1.1s-2-.4-2.7-1.1c-.8-.7-1.1-1.6-1.1-2.7v-83.6c0-1.1.4-2 1.1-2.7.7-.8 1.6-1.1 2.7-1.1s2 .4 2.7 1.1c.8.7 1.1 1.6 1.1 2.7z" id="path888" fill="#231f20"/><path class="st0" d="M728.4 756.3l-.1-.1-58.4-75.3v72.9c0 1.1-.4 2-1.1 2.7-.7.8-1.6 1.1-2.7 1.1s-2-.4-2.7-1.1c-.8-.7-1.1-1.6-1.1-2.7v-84.1c0-1.8.9-3 2.6-3.6 1.7-.6 3.2-.2 4.3 1.3l58.5 75.3v-72.9c0-1.1.4-2 1.1-2.7.8-.8 1.7-1.1 2.7-1.1 1.1 0 2 .4 2.7 1.1.7.7 1.1 1.6 1.1 2.7V754.2c0 .1 0 .3-.1.4 0 .1 0 .2-.1.3 0 .2-.1.3-.1.4 0 .1-.1.2-.1.3 0 .1-.1.2-.2.3 0 .1-.1.2-.2.3l-.3.3-.3.3c-.2.2-.3.2-.2.1.1 0 0 0-.1.1 0 0-.1.1-.2.1-.1.1-.3.1-.4.2-.1 0-.2.1-.3.1-.1 0-.3.1-.4.1-.1 0-.2.1-.3.1-.3 0-.5.1-.7.1-.3 0-.5 0-.8-.1l-.3-.1c-.2-.1-.4-.1-.5-.2 0 0-.1-.1-.3-.2-.2-.1-.3-.2-.4-.3 0 0-.1-.1-.3-.2l-.2-.2s.1 0-.1-.1z" id="path890" fill="#231f20"/><path class="st0" d="M781 715.6c-10.2-.1-17.9-3-23.1-8.5-4.2-4.4-6.1-9.6-5.9-15.4.3-7.2 3.3-13.3 8.7-18.3 5.4-5 12-7.5 19.6-7.5 6.7 0 12.7 1.4 18 4.2 6.3 3.3 10.3 8.1 12 14.5.3 1 .1 2-.4 2.9-.6.9-1.3 1.5-2.4 1.7-1 .3-2 .2-2.9-.4-.9-.5-1.5-1.3-1.7-2.3-1.1-4.4-4.1-7.8-8.9-10.1-4-2-8.6-2.9-13.7-2.9-5.6 0-10.4 1.8-14.4 5.4-4 3.6-6.1 8-6.4 13.1-.2 3.7 1.1 6.9 3.8 9.8 3.7 4 9.6 6 17.7 6.1 1.1 0 2 .4 2.7 1.1.7.8 1.1 1.7 1.1 2.7 0 1-.4 1.9-1.1 2.6-.7.9-1.6 1.3-2.7 1.3zm-16.8 37.9c-6.3-3.4-10.3-8.2-12-14.6-.3-1-.1-1.9.4-2.9.6-.9 1.3-1.5 2.4-1.7 1-.3 1.9-.1 2.9.4.9.6 1.5 1.3 1.7 2.3 1.1 4.4 4.1 7.8 8.9 10.1 4 1.9 8.6 2.9 13.7 2.9 5.6 0 10.4-1.8 14.4-5.4 4-3.6 6.1-7.9 6.4-13.1.2-3.7-1.1-7-3.8-9.8-3.7-4-9.6-6-17.7-6.1-1.1 0-2-.4-2.7-1.1-.7-.8-1.1-1.7-1.1-2.7 0-1.1.4-2 1.2-2.7.7-.7 1.6-1.1 2.7-1.1 10.2.2 17.9 3 23.1 8.6 4.2 4.4 6.1 9.5 5.8 15.3-.3 7.2-3.2 13.3-8.7 18.3-5.4 5-12 7.5-19.6 7.5-6.8-.1-12.8-1.5-18-4.2z" id="path892" fill="#231f20"/><path class="st0" d="M847.6 673.7h-25.2c-1.1 0-2-.4-2.7-1.1-.7-.7-1.1-1.6-1.1-2.7s.4-2 1.1-2.7c.8-.8 1.7-1.1 2.7-1.1h58c1.1 0 2 .4 2.7 1.1.8.7 1.1 1.6 1.1 2.7s-.4 2-1.1 2.7c-.7.7-1.6 1.1-2.7 1.1h-25.2v80.1c0 1.1-.4 2-1.1 2.7-.8.7-1.7 1.1-2.7 1.1-1 0-1.9-.4-2.7-1.1-.7-.8-1.1-1.7-1.1-2.7z" id="path894" fill="#231f20"/><path class="st0" d="M927.9 666.2c7.4 0 13.7 2.4 18.9 7.2 5.2 4.8 7.8 10.6 7.8 17.4 0 6-2.1 11.4-6.4 16-4.2 4.6-9.4 7.3-15.8 8.3l18.2 37.1c.5.9.5 1.9.2 2.9s-1 1.7-1.9 2.2c-.5.3-1.1.4-1.7.4-1.6 0-2.7-.7-3.4-2.1l-19.7-40h-21.3v37.7c0 1-.4 1.9-1.1 2.7-.7.7-1.6 1.1-2.7 1.1-1 0-1.9-.4-2.7-1.1-.7-.8-1.1-1.7-1.1-2.7V670c0-1.1.4-2 1.1-2.7.8-.7 1.7-1.1 2.7-1.1zm19.1 24.6c0-4.7-1.9-8.7-5.6-12.1-3.7-3.4-8.3-5-13.5-5h-25.1v34.2h25.5c5.2-.1 9.6-1.8 13.2-5.1 3.7-3.3 5.5-7.3 5.5-12z" id="path896" fill="#231f20"/><path class="st0" d="M1027.5 666.3c1 0 1.9.4 2.7 1.1.7.7 1.1 1.6 1.1 2.7v56.2c0 8.6-3.1 16-9.2 22.1-6.1 6.1-13.5 9.2-22.1 9.2-8.6 0-16-3.1-22.2-9.2-6.1-6.1-9.2-13.5-9.2-22.1V670c0-1.1.4-2 1.1-2.7.7-.7 1.6-1.1 2.7-1.1 1 0 1.9.4 2.6 1.1.7.7 1.1 1.6 1.1 2.7v56.2c0 6.6 2.3 12.2 7 16.9 4.6 4.7 10.3 7 16.9 7 6.6 0 12.2-2.3 16.9-7 4.7-4.6 7-10.3 7-16.9V670c0-1.1.4-2 1.1-2.7.6-.7 1.5-1 2.5-1z" id="path898" fill="#231f20"/><path class="st0" d="M1089.6 757.6c-12.6 0-23.4-4.5-32.4-13.5-9-8.9-13.5-19.7-13.5-32.4s4.5-23.5 13.5-32.4c8.9-9 19.7-13.5 32.4-13.5 10.4 0 19.7 3.2 28 9.5.9.6 1.3 1.5 1.5 2.6.1 1.1-.1 2-.8 2.8-.6.9-1.5 1.3-2.6 1.5-1.1.2-2-.1-2.8-.8-6.9-5.2-14.6-7.9-23.3-7.9-10.5 0-19.5 3.7-26.9 11.2-7.4 7.4-11.2 16.4-11.2 27 0 10.5 3.7 19.5 11.2 26.9 7.4 7.4 16.4 11.2 26.9 11.2 9.9 0 18.4-3.3 25.7-9.9.8-.7 1.7-1.1 2.7-1 1.1 0 2 .5 2.7 1.3.7.8 1.1 1.7 1 2.7 0 1.1-.5 2-1.3 2.7-8.6 8-18.9 12-30.8 12z" id="path900" fill="#231f20"/><path class="st0" d="M1156.4 673.7h-25.2c-1.1 0-2-.4-2.7-1.1-.7-.7-1.1-1.6-1.1-2.7s.4-2 1.1-2.7c.8-.8 1.7-1.1 2.7-1.1h58c1.1 0 2 .4 2.7 1.1.8.7 1.1 1.6 1.1 2.7s-.4 2-1.1 2.7c-.7.7-1.6 1.1-2.7 1.1H1164v80.1c0 1.1-.4 2-1.1 2.7-.8.7-1.7 1.1-2.7 1.1-1 0-1.9-.4-2.7-1.1-.7-.8-1.1-1.7-1.1-2.7z" id="path902" fill="#231f20"/><path class="st0" d="M1211.8 753.8c0 1.1-.4 2-1.1 2.7-.7.8-1.6 1.1-2.7 1.1s-2-.4-2.7-1.1c-.8-.7-1.1-1.6-1.1-2.7v-83.6c0-1.1.4-2 1.1-2.7.7-.8 1.6-1.1 2.7-1.1s2 .4 2.7 1.1c.8.7 1.1 1.6 1.1 2.7z" id="path904" fill="#231f20"/><path class="st0" d="M1271.2 757.6c-12.6 0-23.4-4.5-32.4-13.4-8.9-8.9-13.4-19.7-13.4-32.4 0-12.6 4.5-23.4 13.4-32.4 8.9-8.9 19.7-13.4 32.4-13.4s23.4 4.5 32.4 13.4c8.9 8.9 13.4 19.7 13.4 32.4 0 12.6-4.5 23.4-13.4 32.4-9 8.9-19.8 13.4-32.4 13.4zm0-83.9c-10.5 0-19.5 3.7-26.9 11.2-7.4 7.4-11.2 16.4-11.2 26.9s3.7 19.5 11.2 26.9c7.4 7.4 16.4 11.2 26.9 11.2s19.5-3.7 26.9-11.2c7.5-7.4 11.2-16.4 11.2-26.9s-3.7-19.5-11.2-26.9c-7.4-7.5-16.4-11.2-26.9-11.2z" id="path906" fill="#231f20"/><path class="st0" d="M1401.3 756.3l-.1-.1-58.4-75.3v72.9c0 1.1-.4 2-1.1 2.7-.7.8-1.6 1.1-2.7 1.1s-2-.4-2.7-1.1c-.8-.7-1.1-1.6-1.1-2.7v-84.1c0-1.8.9-3 2.6-3.6 1.7-.6 3.2-.2 4.3 1.3l58.5 75.3v-72.9c0-1.1.4-2 1.1-2.7.8-.8 1.7-1.1 2.7-1.1 1.1 0 2 .4 2.7 1.1.7.7 1.1 1.6 1.1 2.7V754.2c0 .1 0 .3-.1.4 0 .1 0 .2-.1.3 0 .2-.1.3-.1.4 0 .1-.1.2-.1.3 0 .1-.1.2-.2.3 0 .1-.1.2-.2.3l-.3.3-.3.3c-.2.2-.3.2-.2.1.1 0 0 0-.1.1 0 0-.1.1-.2.1-.1.1-.3.1-.4.2-.1 0-.2.1-.3.1-.1 0-.3.1-.4.1-.1 0-.2.1-.3.1-.3 0-.5.1-.7.1-.3 0-.5 0-.8-.1l-.3-.1c-.2-.1-.4-.1-.5-.2 0 0-.1-.1-.3-.2-.2-.1-.3-.2-.4-.3 0 0-.1-.1-.3-.2l-.2-.2s.1 0-.1-.1z" id="path908" fill="#231f20"/></g><g id="g928" transform="translate(-115.9 -623.5)"><path class="st0" d="M635.8 914.5c-1.1 0-2-.4-2.7-1.1-.8-.8-1.1-1.7-1.1-2.7v-83.9c0-1.1.4-2 1.1-2.7.7-.8 1.6-1.1 2.7-1.1H657c12.6 0 23.4 4.5 32.3 13.4 8.9 8.9 13.4 19.7 13.4 32.3 0 12.6-4.5 23.4-13.4 32.3-8.9 8.9-19.7 13.4-32.3 13.4zm3.8-7.7l17.4-.3c10.5 0 19.5-3.7 26.9-11.1 7.4-7.4 11.2-16.4 11.2-26.9s-3.7-19.4-11.2-26.9c-7.4-7.4-16.4-11.1-26.9-11.1h-17.4z" id="path912" fill="#231f20"/><path class="st0" d="M728.7 910.7c0 1.1-.4 2-1.1 2.7-.7.8-1.6 1.1-2.7 1.1s-2-.4-2.7-1.1c-.8-.7-1.1-1.6-1.1-2.7v-83.6c0-1.1.4-2 1.1-2.7.7-.8 1.6-1.1 2.7-1.1s2 .4 2.7 1.1c.8.7 1.1 1.6 1.1 2.7z" id="path914" fill="#231f20"/><path class="st0" d="M807.8 823.2c1 .3 1.7 1 2.2 2 .4.9.5 1.9.1 2.9L780.7 912c0-.1 0 0-.1.3 0 .1-.1.2-.1.2-.1.2-.2.3-.3.4-.1.2-.1.2-.1.1-.1.2-.3.3-.4.5l-.1.1c-.1.1-.3.2-.4.3-.1 0-.2.1-.3.1-.1.1-.3.2-.4.3h-.1l-.1.1h-.1c-.1 0-.2.1-.4.1h-.2c-.2 0-.4.1-.6.1-.2 0-.4 0-.6-.1h-.2c-.2 0-.3-.1-.4-.1l-.1-.1h-.1c-.2-.1-.3-.2-.5-.3-.1 0-.1-.1-.2-.1-.1-.1-.3-.2-.4-.3l-.1-.1c-.2-.2-.3-.3-.4-.5l-.1-.1v-.1c-.1-.1-.2-.3-.3-.4 0 0 0-.1-.1-.2-.1-.2-.1-.3-.1-.3L744 828c-.4-1-.3-1.9.1-2.9.5-1 1.2-1.6 2.2-2 1-.3 2-.3 2.9.2.9.4 1.6 1.1 1.9 2.2l25.9 73.7 25.9-73.7c.3-1 1-1.7 1.9-2.2.9-.5 1.4-.7 1.4-.7s.6.2 1.6.6z" id="path916" fill="#231f20"/><path class="st0" d="M831.8 910.7c0 1.1-.4 2-1.1 2.7-.7.8-1.6 1.1-2.7 1.1s-2-.4-2.7-1.1c-.8-.7-1.1-1.6-1.1-2.7v-83.6c0-1.1.4-2 1.1-2.7.7-.8 1.6-1.1 2.7-1.1s2 .4 2.7 1.1c.8.7 1.1 1.6 1.1 2.7z" id="path918" fill="#231f20"/><path class="st0" d="M877.9 872.5c-10.2-.1-17.9-3-23.1-8.5-4.2-4.4-6.1-9.6-5.9-15.4.3-7.2 3.3-13.3 8.7-18.3 5.4-5 12-7.5 19.6-7.5 6.7 0 12.7 1.4 18 4.2 6.3 3.3 10.3 8.1 12 14.5.3 1 .1 2-.4 2.9-.6.9-1.3 1.5-2.4 1.7-1 .3-2 .2-2.9-.4-.9-.5-1.5-1.3-1.7-2.3-1.1-4.4-4.1-7.8-8.9-10.1-4-2-8.6-2.9-13.7-2.9-5.6 0-10.4 1.8-14.4 5.4-4 3.6-6.1 8-6.4 13.1-.2 3.7 1.1 6.9 3.8 9.8 3.7 4 9.6 6 17.7 6.1 1.1 0 2 .4 2.7 1.1.7.8 1.1 1.7 1.1 2.7 0 1-.4 1.9-1.1 2.6-.7 1-1.6 1.3-2.7 1.3zM861 910.4c-6.3-3.4-10.3-8.2-12-14.6-.3-1-.1-1.9.4-2.9.6-.9 1.3-1.5 2.4-1.7 1-.3 1.9-.1 2.9.4.9.6 1.5 1.3 1.7 2.3 1.1 4.4 4.1 7.8 8.9 10.1 4 1.9 8.6 2.9 13.7 2.9 5.6 0 10.4-1.8 14.4-5.4 4-3.6 6.1-7.9 6.4-13.1.2-3.7-1.1-7-3.8-9.8-3.7-4-9.6-6-17.7-6.1-1.1 0-2-.4-2.7-1.1-.7-.8-1.1-1.7-1.1-2.7 0-1.1.4-2 1.2-2.7.7-.7 1.6-1.1 2.7-1.1 10.2.2 17.9 3 23.1 8.6 4.2 4.4 6.1 9.5 5.8 15.3-.3 7.2-3.2 13.3-8.7 18.3-5.4 5-12 7.5-19.6 7.5-6.7-.1-12.7-1.5-18-4.2z" id="path920" fill="#231f20"/><path class="st0" d="M931.5 910.7c0 1.1-.4 2-1.1 2.7-.7.8-1.6 1.1-2.7 1.1s-2-.4-2.7-1.1c-.8-.7-1.1-1.6-1.1-2.7v-83.6c0-1.1.4-2 1.1-2.7.7-.8 1.6-1.1 2.7-1.1s2 .4 2.7 1.1c.8.7 1.1 1.6 1.1 2.7z" id="path922" fill="#231f20"/><path class="st0" d="M990.9 914.5c-12.6 0-23.4-4.5-32.4-13.4s-13.4-19.7-13.4-32.4c0-12.6 4.5-23.4 13.4-32.4s19.7-13.4 32.4-13.4 23.4 4.5 32.4 13.4 13.4 19.7 13.4 32.4c0 12.6-4.5 23.4-13.4 32.4s-19.7 13.4-32.4 13.4zm0-83.9c-10.5 0-19.5 3.7-26.9 11.2-7.4 7.4-11.2 16.4-11.2 26.9s3.7 19.5 11.2 26.9c7.4 7.4 16.4 11.2 26.9 11.2s19.5-3.7 26.9-11.2c7.5-7.4 11.2-16.4 11.2-26.9s-3.7-19.5-11.2-26.9c-7.4-7.5-16.3-11.2-26.9-11.2z" id="path924" fill="#231f20"/><path class="st0" d="M1121.1 913.2l-.1-.1-58.4-75.3v72.9c0 1.1-.4 2-1.1 2.7-.7.8-1.6 1.1-2.7 1.1s-2-.4-2.7-1.1c-.8-.7-1.1-1.6-1.1-2.7v-84.1c0-1.8.9-3 2.6-3.6 1.7-.6 3.2-.2 4.3 1.3l58.5 75.3v-72.9c0-1.1.4-2 1.1-2.7.8-.8 1.7-1.1 2.7-1.1 1.1 0 2 .4 2.7 1.1.7.7 1.1 1.6 1.1 2.7V911.1c0 .1 0 .3-.1.4 0 .1 0 .2-.1.3 0 .2-.1.3-.1.4 0 .1-.1.2-.1.3 0 .1-.1.2-.2.3 0 .1-.1.2-.2.3l-.3.3-.3.3c-.2.2-.3.2-.2.1.1 0 0 0-.1.1 0 0-.1.1-.2.1-.1.1-.3.1-.4.2-.1 0-.2.1-.3.1-.1 0-.3.1-.4.1-.1 0-.2.1-.3.1-.3 0-.5.1-.7.1-.3 0-.5 0-.8-.1l-.3-.1c-.2-.1-.4-.1-.5-.2 0 0-.1-.1-.3-.2-.2-.1-.3-.2-.4-.3 0 0-.1-.1-.3-.2l-.2-.2-.1-.1z" id="path926" fill="#231f20"/></g></svg>